<?xml version="1.0" encoding="utf-8"?>
<!-- Generator: Adobe Illustrator 16.0.0, SVG Export Plug-In . SVG Version: 6.00 Build 0)  -->
<!DOCTYPE svg PUBLIC "-//W3C//DTD SVG 1.1//EN" "http://www.w3.org/Graphics/SVG/1.1/DTD/svg11.dtd">
<svg version="1.1" id="Layer_1" xmlns="http://www.w3.org/2000/svg" xmlns:xlink="http://www.w3.org/1999/xlink" x="0px" y="0px"
	 width="1000px" height="374.657px" viewBox="0 0 1000 374.657" enable-background="new 0 0 1000 374.657" xml:space="preserve">
<g>
	<path fill="#055B8D" d="M375.45,95.224h15.589c3.681,0,6.663,2.984,6.663,6.664v166.416c0,2.306,1.875,4.18,4.185,4.18h98.746
		c3.681,0,6.666,2.983,6.666,6.663v11.834c0,3.68-2.984,6.664-6.666,6.664H375.45c-3.682,0-6.666-2.984-6.666-6.664V101.887
		C368.784,98.208,371.769,95.224,375.45,95.224"/>
	<path fill="#055B8D" d="M667.609,247.035H565.582c-1.685,0-3.207,0.997-3.885,2.539l-19.4,44.09
		c-1.065,2.418-3.456,3.978-6.098,3.978h-15.108c-4.84,0-8.066-5-6.069-9.409l85.634-189.095c1.078-2.383,3.452-3.912,6.069-3.912
		h20.042c2.613,0,4.981,1.526,6.065,3.903l85.898,189.094c2.003,4.413-1.22,9.419-6.063,9.419h-15.674
		c-2.639,0-5.033-1.56-6.094-3.978l-19.4-44.09C670.822,248.032,669.296,247.035,667.609,247.035 M658.227,219.288l-38.616-87.729
		c-1.155-2.619-4.872-2.619-6.027,0l-38.62,87.729c-0.955,2.175,0.636,4.615,3.014,4.615h77.239
		C657.594,223.903,659.185,221.462,658.227,219.288"/>
	<path fill="#055B8D" d="M752.833,95.224h15.593c3.678,0,6.662,2.984,6.662,6.664v189.092c0,3.68-2.984,6.664-6.662,6.664h-15.593
		c-3.682,0-6.663-2.984-6.663-6.664V101.887C746.17,98.208,749.151,95.224,752.833,95.224"/>
	<path fill="#055B8D" d="M843.793,292.869c-11.905-3.971-21.674-8.927-29.295-14.874c-2.458-1.919-3.246-5.296-1.903-8.117
		l4.875-10.284c1.758-3.71,6.472-5.069,9.814-2.679c6.595,4.712,14.412,8.7,23.452,11.952c12.044,4.336,24.433,6.508,37.158,6.508
		c16.767,0,29.298-2.841,37.593-8.53c8.282-5.686,12.432-13.254,12.432-22.701c0-6.941-2.265-12.576-6.795-16.916
		c-4.53-4.336-10.121-7.66-16.773-9.975c-6.65-2.313-16.048-4.917-28.195-7.808c-15.229-3.661-27.521-7.324-36.868-10.992
		c-9.353-3.657-17.351-9.296-24-16.916c-6.653-7.61-9.976-17.875-9.976-30.794c0-10.793,2.839-20.529,8.531-29.204
		c5.685-8.676,14.312-15.615,25.882-20.821c11.563-5.203,25.927-7.808,43.081-7.808c11.954,0,23.717,1.544,35.283,4.625
		c9.363,2.498,17.648,5.88,24.862,10.144c2.868,1.694,4.068,5.23,2.794,8.308l-4.504,10.92c-1.51,3.661-5.846,5.18-9.327,3.293
		c-6.595-3.574-13.519-6.411-20.768-8.517c-9.64-2.796-19.081-4.193-28.34-4.193c-16.387,0-28.676,2.992-36.867,8.963
		c-8.195,5.977-12.29,13.69-12.29,23.133c0,6.938,2.313,12.579,6.943,16.916c4.624,4.338,10.357,7.714,17.207,10.119
		c6.836,2.415,16.141,4.965,27.901,7.664c15.225,3.665,27.472,7.332,36.726,10.99c9.253,3.665,17.206,9.254,23.855,16.773
		c6.653,7.52,9.976,17.636,9.976,30.361c0,10.603-2.891,20.293-8.676,29.061c-5.781,8.775-14.557,15.717-26.311,20.821
		c-11.764,5.11-26.224,7.66-43.375,7.66C872.659,299.952,857.963,297.598,843.793,292.869"/>
	<path fill="#055B8D" d="M315.011,185.371c-6.101,0-11.063,4.962-11.063,11.062c0,68.393-55.645,124.04-124.04,124.04
		c-51.967,0-98.826-32.793-116.597-81.606c-2.081-5.729-8.446-8.692-14.177-6.608c-2.774,1.012-4.991,3.042-6.24,5.719
		c-1.248,2.68-1.377,5.683-0.367,8.458c20.938,57.516,76.148,96.161,137.381,96.161c80.594,0,146.163-65.566,146.163-146.163
		C326.07,190.333,321.108,185.371,315.011,185.371"/>
	<path fill="#055B8D" d="M315.011,185.371h-69.225l-24.985-55.842c-1.788-3.997-5.759-6.541-10.179-6.541
		c-0.106,0-0.21,0.003-0.316,0.003c-4.523,0.166-8.446,3.02-9.995,7.272l-28.637,78.633l-21.829-54.522
		c-1.649-4.124-5.582-6.848-10.024-6.949l-0.249-0.003c-4.326,0-8.282,2.551-10.072,6.498l-14.241,31.45h-70.45
		c-6.099,0-11.061,4.962-11.061,11.061c0,6.098,4.962,11.061,11.061,11.061h77.584c4.336,0,8.288-2.55,10.075-6.5l6.482-14.311
		l22.945,57.307c1.688,4.222,5.721,6.952,10.263,6.952h0.178c4.556-0.073,8.66-2.998,10.218-7.279l29.202-80.182l16.771,37.47
		c1.774,3.975,5.736,6.542,10.092,6.542h76.394c6.095,0,11.057-4.962,11.057-11.061
		C326.067,190.333,321.105,185.371,315.011,185.371"/>
	<path fill="#055B8D" d="M317.289,146.429c-20.936-57.517-76.145-96.157-137.381-96.157c-80.594,0-146.163,65.567-146.163,146.16
		c0,6.098,4.965,11.061,11.063,11.061c6.098,0,11.06-4.962,11.06-11.061c0-68.396,55.645-124.042,124.04-124.042
		c51.97,0,98.826,32.795,116.594,81.604c1.013,2.775,3.043,4.995,5.721,6.245c2.684,1.252,5.685,1.38,8.456,0.366
		c2.774-1.01,4.998-3.042,6.246-5.718C318.169,152.21,318.302,149.204,317.289,146.429"/>
</g>
</svg>
