<svg xmlns="http://www.w3.org/2000/svg" version="1.1" xmlns:xlink="http://www.w3.org/1999/xlink" xmlns:svgjs="http://svgjs.dev/svgjs" width="2000" height="1247" viewBox="0 0 2000 1247"><g transform="matrix(1,0,0,1,-1.2121212121212466,0.504858299595071)"><svg viewBox="0 0 396 247" data-background-color="#1f2d5a" preserveAspectRatio="xMidYMid meet" height="1247" width="2000" xmlns="http://www.w3.org/2000/svg" xmlns:xlink="http://www.w3.org/1999/xlink"><g id="tight-bounds" transform="matrix(1,0,0,1,0.2400000000000091,-0.09999999999999432)"><svg viewBox="0 0 395.52 247.2" height="247.2" width="395.52"><g><svg></svg></g><g><svg viewBox="0 0 395.52 247.2" height="247.2" width="395.52"><g transform="matrix(1,0,0,1,153.43529915492957,47.215199999999996)"><svg viewBox="0 0 88.64940169014085 152.7696" height="152.7696" width="88.64940169014085"><g><svg viewBox="0 0 88.64940169014085 152.7696" height="152.7696" width="88.64940169014085"><g><svg viewBox="0 0 88.64940169014085 152.7696" height="152.7696" width="88.64940169014085"><g><svg viewBox="0 0 88.64940169014085 152.7696" height="152.7696" width="88.64940169014085"><g><svg viewBox="0 0 88.64940169014085 152.7696" height="152.7696" width="88.64940169014085"><g><svg viewBox="0 0 88.64940169014085 152.7696" height="152.7696" width="88.64940169014085"><g transform="matrix(1,0,0,1,0,0)"><svg width="88.64940169014085" viewBox="3.299999952316284 -35 20.600000381469727 35.5" height="152.7696" data-palette-color="#fbfbfb"><path d="M13 0.5L13 0.5Q9.85 0.5 7.35-1.25 4.85-3 3.55-5.85L3.55-5.85Q3.3-6.3 3.3-6.65L3.3-6.65Q3.3-7.3 3.8-7.68 4.3-8.05 4.8-8.05L4.8-8.05Q5.3-8.05 5.63-7.8 5.95-7.55 6.2-7.2L6.2-7.2Q7.15-5.1 8.95-3.8 10.75-2.5 13-2.5L13-2.5Q15.3-2.5 17.05-3.48 18.8-4.45 19.78-6.2 20.75-7.95 20.75-10.2L20.75-10.2 20.75-33.5Q20.75-34.1 21.23-34.55 21.7-35 22.35-35L22.35-35Q23.05-35 23.48-34.55 23.9-34.1 23.9-33.5L23.9-33.5 23.9-10.2Q23.9-7.1 22.5-4.67 21.1-2.25 18.65-0.88 16.2 0.5 13 0.5Z" opacity="1" transform="matrix(1,0,0,1,0,0)" fill="#fbfbfb" class="undefined-text-0" data-fill-palette-color="primary" id="text-0"></path></svg></g></svg></g></svg></g></svg></g></svg></g></svg></g></svg></g><path d="M335.737 41.215L335.737 0 88.537 0 88.537 247.2 335.737 247.2 335.737 205.985 321.96 205.985 321.96 233.423 102.314 233.423 102.314 13.777 321.96 13.777 321.96 41.215Z" fill="#fbfbfb" stroke="transparent" data-fill-palette-color="primary"></path></svg></g><defs></defs></svg><rect width="395.52" height="247.2" fill="none" stroke="none" visibility="hidden"></rect></g></svg></g></svg>